<svg xmlns="http://www.w3.org/2000/svg" viewBox="0 0 40 40" width="40" height="40" role="img" aria-label="StockMaster">
  <defs>
    <linearGradient id="brand" x1="0" y1="0" x2="1" y2="1">
      <stop offset="0%" stop-color="#8b5cf6" />
      <stop offset="100%" stop-color="#c026d3" />
    </linearGradient>
  </defs>
  <rect width="40" height="40" rx="10" fill="url(#brand)" />
  <g transform="translate(9.5, 9.5) scale(0.85)" fill="none" stroke="#ffffff" stroke-width="1.8" stroke-linecap="round" stroke-linejoin="round">
    <path d="M21 16V8a2 2 0 0 0-1-1.73l-7-4a2 2 0 0 0-2 0l-7 4A2 2 0 0 0 3 8v8a2 2 0 0 0 1 1.73l7 4a2 2 0 0 0 2 0l7-4A2 2 0 0 0 21 16z" />
    <polyline points="3.27 6.96 12 12.01 20.73 6.96" />
    <line x1="12" y1="22.08" x2="12" y2="12" />
  </g>
</svg>
